<?xml version="1.0" standalone="yes"?>
<svg xmlns="http://www.w3.org/2000/svg" width="500" height="500">
<path style="fill:#ffffff; stroke:none;" d="M0 0L0 500L500 500L500 0L0 0z"/>
<path style="fill:#f2f2f2; stroke:none;" d="M8 204L8 205L30 205L8 204z"/>
<path style="fill:#e8e8e8; stroke:none;" d="M69 204L69 205L88 205L69 204z"/>
<path style="fill:#f2f2f2; stroke:none;" d="M111 204L111 205L132 205L111 204M160 204L160 205L183 205L160 204M210 204L210 205L241 205L210 204M250 204L250 205L271 205L250 204M310.667 204.333L311.333 204.667L310.667 204.333z"/>
<path style="fill:#e8e8e8; stroke:none;" d="M312 204L313 205L312 204z"/>
<path style="fill:#e0e0e0; stroke:none;" d="M313.667 204.333L314.333 204.667L313.667 204.333z"/>
<path style="fill:#d9d9d9; stroke:none;" d="M298 243C298 246.339 297.037 251.661 299.603 254.272C308.69 263.521 330.922 255.623 333.467 244C335.466 234.869 328.451 229.01 321 225.586C318.442 224.411 311.335 221.665 312.613 217.72C314.526 211.811 326.401 217.038 330 218L333 207C320.291 204.095 289.279 203.279 299.653 225.996C303.376 234.149 313.884 233.413 318.338 240.208C324.94 250.281 300.62 243.606 298 243z"/>
<path style="fill:#e0e0e0; stroke:none;" d="M321 204L322 205L321 204z"/>
<path style="fill:#e8e8e8; stroke:none;" d="M322.667 204.333L323.333 204.667L322.667 204.333z"/>
<path style="fill:#f2f2f2; stroke:none;" d="M324 204L325 205L324 204M342 204L342 205L356 205L356 224C357.518 220.383 358.879 207.786 355.397 205.028C352.45 202.694 345.565 204 342 204M373 204L373 205L387 205L373 204M414 204L415 205L414 204z"/>
<path style="fill:#e8e8e8; stroke:none;" d="M415 204L416 205L415 204z"/>
<path style="fill:#e0e0e0; stroke:none;" d="M416.667 204.333L417.333 204.667L416.667 204.333z"/>
<path style="fill:#d9d9d9; stroke:none;" d="M418 204.439C398.108 207.54 388.965 234.229 402.532 249.815C408.851 257.073 420.007 258.251 429 256.671C459.147 251.375 450.03 199.447 418 204.439z"/>
<path style="fill:#e0e0e0; stroke:none;" d="M426.667 204.333L427.333 204.667L426.667 204.333z"/>
<path style="fill:#e8e8e8; stroke:none;" d="M428 204L429 205L428 204z"/>
<path style="fill:#f2f2f2; stroke:none;" d="M429 204L430 205L429 204M456 257L457 257L457 205L478 205C474.202 203.406 459.893 201.986 457.028 205.603C454.577 208.698 456 216.269 456 220L456 257z"/>
<path style="fill:#e0e0e0; stroke:none;" d="M8 205L8 257L9 257L9 222L8 205z"/>
<path style="fill:#d9d9d9; stroke:none;" d="M9 205L9 257C18.5011 257 30.0314 258.586 38.9992 254.772C52.1921 249.162 48.9828 235.363 39 229C47.2363 224.688 50.7221 212.919 40.9568 207.688C31.957 202.866 18.8375 205 9 205z"/>
<path style="fill:#e0e0e0; stroke:none;" d="M33.6667 205.333L34.3333 205.667L33.6667 205.333z"/>
<path style="fill:#e8e8e8; stroke:none;" d="M35 205L36 206L35 205z"/>
<path style="fill:#f2f2f2; stroke:none;" d="M36 205L37 206L36 205M68 205L69 206L68 205z"/>
<path style="fill:#d9d9d9; stroke:none;" d="M69 205L53 257L66.436 255.972L72.1443 247.603L88 247L90 257L105 257L92.6667 220L87.2971 206.028L69 205z"/>
<path style="fill:#f2f2f2; stroke:none;" d="M88 205L89 206L88 205z"/>
<path style="fill:#d9d9d9; stroke:none;" d="M111 205L111 257L125 257L125 238L139.61 255.397L155 257L140 235C142.425 232.835 145.062 230.776 146.772 227.961C161.052 204.45 123.437 205 111 205z"/>
<path style="fill:#e0e0e0; stroke:none;" d="M134.667 205.333L135.333 205.667L134.667 205.333z"/>
<path style="fill:#e8e8e8; stroke:none;" d="M136 205L137 206L136 205z"/>
<path style="fill:#f2f2f2; stroke:none;" d="M137 205L138 206L137 205z"/>
<path style="fill:#e8e8e8; stroke:none;" d="M160 205L160 257L161 257L161 222L160 205z"/>
<path style="fill:#d9d9d9; stroke:none;" d="M161 205L161 257C170.691 257 182.986 258.766 191.999 254.427C204.551 248.386 200.753 234.832 191 229C199.595 225.128 202.794 212.522 192.985 207.569C183.779 202.921 170.979 205 161 205z"/>
<path style="fill:#e0e0e0; stroke:none;" d="M186 205L187 206L186 205z"/>
<path style="fill:#e8e8e8; stroke:none;" d="M187 205L188 206L187 205z"/>
<path style="fill:#f2f2f2; stroke:none;" d="M188 205L189 206L188 205z"/>
<path style="fill:#d9d9d9; stroke:none;" d="M210 205L210 257L241 257L241 246L224 246L224 235L239 235L239 225L224 225L224 216L241 216L241 205L210 205z"/>
<path style="fill:#e0e0e0; stroke:none;" d="M250 205L250 257L251 257L251 222L250 205z"/>
<path style="fill:#d9d9d9; stroke:none;" d="M251 205L251 257L264 257L264 238C272.687 239.413 272.973 250.28 278.789 255.397C282.255 258.447 289.689 257 294 257L280 233C289.346 228.537 291.33 214.063 281.957 208.228C273.378 202.887 260.628 205 251 205z"/>
<path style="fill:#e0e0e0; stroke:none;" d="M274 205L275 206L274 205z"/>
<path style="fill:#e8e8e8; stroke:none;" d="M275 205L276 206L275 205z"/>
<path style="fill:#f2f2f2; stroke:none;" d="M276 205L277 206L276 205M307 205L308 206L307 205z"/>
<path style="fill:#e0e0e0; stroke:none;" d="M308 205L309 206L308 205z"/>
<path style="fill:#e8e8e8; stroke:none;" d="M327 205L328 206L327 205z"/>
<path style="fill:#f2f2f2; stroke:none;" d="M328 205L329 206L328 205z"/>
<path style="fill:#e0e0e0; stroke:none;" d="M342 205L342 257L343 257L343 222L342 205z"/>
<path style="fill:#d9d9d9; stroke:none;" d="M343 205L343 257L356 257L356 235L373 235L373 257L387 257L387 205L373 205L373 224L356 224L356 205L343 205z"/>
<path style="fill:#f2f2f2; stroke:none;" d="M410 205L411 206L410 205z"/>
<path style="fill:#e8e8e8; stroke:none;" d="M411 205L412 206L411 205z"/>
<path style="fill:#e0e0e0; stroke:none;" d="M412 205L413 206L412 205M431 205L432 206L431 205z"/>
<path style="fill:#e8e8e8; stroke:none;" d="M432 205L433 206L432 205z"/>
<path style="fill:#f2f2f2; stroke:none;" d="M433 205L434 206L433 205z"/>
<path style="fill:#d9d9d9; stroke:none;" d="M457 205L457 257L470 257C470 252.723 468.329 243.879 471.603 240.603C476.888 235.318 485.9 239.885 491.297 231.985C493.128 229.305 493.818 226.195 493.959 223C494.894 201.835 471.666 205 457 205z"/>
<path style="fill:#e0e0e0; stroke:none;" d="M480.667 205.333L481.333 205.667L480.667 205.333z"/>
<path style="fill:#f2f2f2; stroke:none;" d="M482.667 205.333L483.333 205.667L482.667 205.333z"/>
<path style="fill:#e0e0e0; stroke:none;" d="M38 206L39 207L38 206z"/>
<path style="fill:#f2f2f2; stroke:none;" d="M39 206L40 207L39 206z"/>
<path style="fill:#e8e8e8; stroke:none;" d="M68 206L69 207L68 206M88 206L89 207L88 206z"/>
<path style="fill:#e0e0e0; stroke:none;" d="M139 206L140 207L139 206z"/>
<path style="fill:#f2f2f2; stroke:none;" d="M140 206L141 207L140 206z"/>
<path style="fill:#e0e0e0; stroke:none;" d="M190 206L191 207L190 206z"/>
<path style="fill:#e8e8e8; stroke:none;" d="M191 206L192 207L191 206z"/>
<path style="fill:#e0e0e0; stroke:none;" d="M278 206L279 207L278 206z"/>
<path style="fill:#f2f2f2; stroke:none;" d="M279 206L280 207L279 206z"/>
<path style="fill:#e8e8e8; stroke:none;" d="M305 206L306 207L305 206z"/>
<path style="fill:#e0e0e0; stroke:none;" d="M330 206L331 207L330 206z"/>
<path style="fill:#f2f2f2; stroke:none;" d="M331 206L332 207L331 206M408 206L409 207L408 206z"/>
<path style="fill:#e0e0e0; stroke:none;" d="M409 206L410 207L409 206M434 206L435 207L434 206z"/>
<path style="fill:#f2f2f2; stroke:none;" d="M435 206L436 207L435 206z"/>
<path style="fill:#e0e0e0; stroke:none;" d="M484 206L485 207L484 206z"/>
<path style="fill:#e8e8e8; stroke:none;" d="M485 206L486 207L485 206M41 207L42 208L41 207z"/>
<path style="fill:#e0e0e0; stroke:none;" d="M68 207L69 208L68 207M141 207L142 208L141 207z"/>
<path style="fill:#f2f2f2; stroke:none;" d="M142 207L143 208L142 207z"/>
<path style="fill:#e0e0e0; stroke:none;" d="M193 207L194 208L193 207z"/>
<path style="fill:#e8e8e8; stroke:none;" d="M281 207L282 208L281 207z"/>
<path style="fill:#f2f2f2; stroke:none;" d="M303 207L304 208L303 207z"/>
<path style="fill:#e0e0e0; stroke:none;" d="M304 207L305 208L304 207z"/>
<path style="fill:#e8e8e8; stroke:none;" d="M333 207L334 208L333 207z"/>
<path style="fill:#e0e0e0; stroke:none;" d="M407 207L408 208L407 207M436 207L437 208L436 207z"/>
<path style="fill:#f2f2f2; stroke:none;" d="M437 207L438 208L437 207z"/>
<path style="fill:#e8e8e8; stroke:none;" d="M487 207L488 208L487 207z"/>
<path style="fill:#e0e0e0; stroke:none;" d="M42 208L43 209L42 208z"/>
<path style="fill:#f2f2f2; stroke:none;" d="M43 208L44 209L43 208M67 208L68 209L67 208M89 208L90 209L89 208z"/>
<path style="fill:#e0e0e0; stroke:none;" d="M143 208L144 209L143 208z"/>
<path style="fill:#f2f2f2; stroke:none;" d="M195 208L196 209L195 208z"/>
<path style="fill:#e0e0e0; stroke:none;" d="M282 208L283 209L282 208z"/>
<path style="fill:#f2f2f2; stroke:none;" d="M283 208L284 209L283 208z"/>
<path style="fill:#e8e8e8; stroke:none;" d="M302 208L303 209L302 208z"/>
<path style="fill:#e0e0e0; stroke:none;" d="M333 208L334 209L333 208z"/>
<path style="fill:#f2f2f2; stroke:none;" d="M405 208L406 209L405 208M438 208L439 209L438 208z"/>
<path style="fill:#e0e0e0; stroke:none;" d="M488 208L489 209L488 208z"/>
<path style="fill:#f2f2f2; stroke:none;" d="M44 209L45 210L44 209z"/>
<path style="fill:#e8e8e8; stroke:none;" d="M67 209L68 210L67 209M89 209L90 210L89 209z"/>
<path style="fill:#f2f2f2; stroke:none;" d="M145 209L146 210L145 209z"/>
<path style="fill:#e8e8e8; stroke:none;" d="M196 209L197 210L196 209z"/>
<path style="fill:#f2f2f2; stroke:none;" d="M284 209L285 210L284 209z"/>
<path style="fill:#e8e8e8; stroke:none;" d="M301 209L302 210L301 209z"/>
<path style="fill:#f2f2f2; stroke:none;" d="M333 209L334 210L333 209z"/>
<path style="fill:#e8e8e8; stroke:none;" d="M404 209L405 210L404 209M439 209L440 210L439 209z"/>
<path style="fill:#f2f2f2; stroke:none;" d="M490 209L491 210L490 209M45 210L46 211L45 210z"/>
<path style="fill:#e0e0e0; stroke:none;" d="M67 210L68 211L67 210z"/>
<path style="fill:#f2f2f2; stroke:none;" d="M146 210L147 211L146 210M197 210L198 211L197 210M285 210L286 211L285 210M300 210L301 211L300 210z"/>
<path style="fill:#e0e0e0; stroke:none;" d="M403 210L404 211L403 210z"/>
<path style="fill:#e8e8e8; stroke:none;" d="M440 210L441 211L440 210z"/>
<path style="fill:#e0e0e0; stroke:none;" d="M45 211L46 212L45 211z"/>
<path style="fill:#f2f2f2; stroke:none;" d="M66 211L67 212L66 211M90 211L91 212L90 211z"/>
<path style="fill:#e0e0e0; stroke:none;" d="M146 211L147 212L146 211z"/>
<path style="fill:#f2f2f2; stroke:none;" d="M286 211L287 212L286 211z"/>
<path style="fill:#e8e8e8; stroke:none;" d="M332 211L333 212L332 211M402 211L403 212L402 211M441 211L442 212L441 211z"/>
<path style="fill:#e0e0e0; stroke:none;" d="M491 211L492 212L491 211z"/>
<path style="fill:#f2f2f2; stroke:none;" d="M46 212L47 213L46 212z"/>
<path style="fill:#e8e8e8; stroke:none;" d="M66 212L67 213L66 212M90 212L91 213L90 212M147 212L148 213L147 212M198 212L199 213L198 212z"/>
<path style="fill:#e0e0e0; stroke:none;" d="M286 212L287 213L286 212z"/>
<path style="fill:#e8e8e8; stroke:none;" d="M299 212L300 213L299 212z"/>
<path style="fill:#f2f2f2; stroke:none;" d="M332 212L333 213L332 212M401 212L402 213L401 212M442 212L443 213L442 212z"/>
<path style="fill:#e8e8e8; stroke:none;" d="M492 212L493 213L492 212z"/>
<path style="fill:#e0e0e0; stroke:none;" d="M46 213L47 214L46 213M66 213L67 214L66 213M78 213L79 214L78 213M90 213L91 214L90 213z"/>
<path style="fill:#f2f2f2; stroke:none;" d="M287 213L288 214L287 213z"/>
<path style="fill:#e0e0e0; stroke:none;" d="M331 213L332 214L331 213z"/>
<path style="fill:#f2f2f2; stroke:none;" d="M78 214L79 215L78 214M91 214L92 215L91 214M148 214L149 215L148 214M199 214L200 215L199 214z"/>
<path style="fill:#e0e0e0; stroke:none;" d="M287 214L288 215L287 214z"/>
<path style="fill:#f2f2f2; stroke:none;" d="M298 214L299 215L298 214M331 214L332 215L331 214z"/>
<path style="fill:#e0e0e0; stroke:none;" d="M400 214L401 215L400 214M443 214L444 215L443 214z"/>
<path style="fill:#f2f2f2; stroke:none;" d="M493 214L494 215L493 214z"/>
<path style="fill:#e8e8e8; stroke:none;" d="M22 215L23 216L22 215z"/>
<path style="fill:#f2f2f2; stroke:none;" d="M22 225L29 225L29 224L23 224L23 216L28 216C21.6626 213.592 22.0034 220.582 22 225z"/>
<path style="fill:#e8e8e8; stroke:none;" d="M28 215L29 216L28 215z"/>
<path style="fill:#e0e0e0; stroke:none;" d="M29 215L30 216L29 215z"/>
<path style="fill:#f2f2f2; stroke:none;" d="M47 215L47 220L48 220L47 215z"/>
<path style="fill:#e8e8e8; stroke:none;" d="M65 215L66 216L65 215z"/>
<path style="fill:#ffffff; stroke:none;" d="M78 215L74 235L84 235L78 215z"/>
<path style="fill:#e0e0e0; stroke:none;" d="M79 215L80 216L79 215z"/>
<path style="fill:#e8e8e8; stroke:none;" d="M91 215L92 216L91 215z"/>
<path style="fill:#f2f2f2; stroke:none;" d="M125 215L125 216L130 216L125 215z"/>
<path style="fill:#e8e8e8; stroke:none;" d="M130 215L131 216L130 215z"/>
<path style="fill:#e0e0e0; stroke:none;" d="M131 215L132 216L131 215M148 215L149 216L148 215z"/>
<path style="fill:#e8e8e8; stroke:none;" d="M174 215L174 225L175 225L174 215z"/>
<path style="fill:#f2f2f2; stroke:none;" d="M175 215L175 216L181 216L175 215z"/>
<path style="fill:#e8e8e8; stroke:none;" d="M181 215L182 216L181 215M199 215L199 220L200 220L199 215M264 215L265 216L264 215z"/>
<path style="fill:#f2f2f2; stroke:none;" d="M264 227L265 227L265 216L269 216C262.7 213.936 264 223.08 264 227z"/>
<path style="fill:#e8e8e8; stroke:none;" d="M269 215L270 216L269 215z"/>
<path style="fill:#e0e0e0; stroke:none;" d="M270 215L271 216L270 215M298 215L299 216L298 215M313 215L314 216L313 215z"/>
<path style="fill:#e8e8e8; stroke:none;" d="M314 215L315 216L314 215z"/>
<path style="fill:#f2f2f2; stroke:none;" d="M315 215L315 216L320 216L315 215z"/>
<path style="fill:#e8e8e8; stroke:none;" d="M320 215L321 216L320 215z"/>
<path style="fill:#e0e0e0; stroke:none;" d="M321 215L322 216L321 215z"/>
<path style="fill:#f2f2f2; stroke:none;" d="M399 215L400 216L399 215z"/>
<path style="fill:#e8e8e8; stroke:none;" d="M419.667 215.333L420.333 215.667L419.667 215.333z"/>
<path style="fill:#f2f2f2; stroke:none;" d="M421.667 215.333L422.333 215.667L421.667 215.333z"/>
<path style="fill:#e8e8e8; stroke:none;" d="M423.667 215.333L424.333 215.667L423.667 215.333z"/>
<path style="fill:#f2f2f2; stroke:none;" d="M444 215L445 216L444 215z"/>
<path style="fill:#e0e0e0; stroke:none;" d="M493 215L494 216L493 215z"/>
<path style="fill:#ffffff; stroke:none;" d="M23 216L23 224C34.0004 223.961 34.0004 216.039 23 216z"/>
<path style="fill:#e8e8e8; stroke:none;" d="M31 216L32 217L31 216z"/>
<path style="fill:#e0e0e0; stroke:none;" d="M65 216L66 217L65 216M77 216L78 217L77 216z"/>
<path style="fill:#e8e8e8; stroke:none;" d="M79 216L80 217L79 216z"/>
<path style="fill:#e0e0e0; stroke:none;" d="M91 216L92 217L91 216z"/>
<path style="fill:#ffffff; stroke:none;" d="M125 216L125 227C136.645 226.718 136.911 216.108 125 216z"/>
<path style="fill:#f2f2f2; stroke:none;" d="M132 216L133 217L132 216z"/>
<path style="fill:#e0e0e0; stroke:none;" d="M133 216L134 217L133 216z"/>
<path style="fill:#ffffff; stroke:none;" d="M175 216L175 224C186.217 223.96 186.217 216.04 175 216z"/>
<path style="fill:#f2f2f2; stroke:none;" d="M183 216L184 217L183 216z"/>
<path style="fill:#ffffff; stroke:none;" d="M265 216L265 227C275.659 226.416 276.016 216.13 265 216z"/>
<path style="fill:#e8e8e8; stroke:none;" d="M272 216L273 217L272 216z"/>
<path style="fill:#f2f2f2; stroke:none;" d="M288.333 216.667L288.667 217.333L288.333 216.667z"/>
<path style="fill:#e0e0e0; stroke:none;" d="M312 216L313 217L312 216z"/>
<path style="fill:#f2f2f2; stroke:none;" d="M323 216L324 217L323 216z"/>
<path style="fill:#e8e8e8; stroke:none;" d="M324 216L325 217L324 216z"/>
<path style="fill:#e0e0e0; stroke:none;" d="M325 216L326 217L325 216z"/>
<path style="fill:#e8e8e8; stroke:none;" d="M330 216L331 217L330 216z"/>
<path style="fill:#e0e0e0; stroke:none;" d="M399 216L400 217L399 216M416 216L417 217L416 216z"/>
<path style="fill:#f2f2f2; stroke:none;" d="M417 216L418 217L417 216z"/>
<path style="fill:#ffffff; stroke:none;" d="M418.044 216.742C406.471 221.43 410.81 251.686 425.981 244.562C437.262 239.265 433.453 210.501 418.044 216.742z"/>
<path style="fill:#f2f2f2; stroke:none;" d="M426 216L427 217L426 216z"/>
<path style="fill:#e0e0e0; stroke:none;" d="M427 216L428 217L427 216M444 216L445 217L444 216M470 216C470 220.845 468.535 227.186 474 229L474 228L471 228L470 216z"/>
<path style="fill:#ffffff; stroke:none;" d="M471 216L471 228C481.814 227.406 481.998 216.512 471 216z"/>
<path style="fill:#f2f2f2; stroke:none;" d="M476 216L477 217L476 216z"/>
<path style="fill:#e8e8e8; stroke:none;" d="M477 216L478 217L477 216z"/>
<path style="fill:#e0e0e0; stroke:none;" d="M32 217L33 218L32 217z"/>
<path style="fill:#e8e8e8; stroke:none;" d="M77 217L78 218L77 217z"/>
<path style="fill:#f2f2f2; stroke:none;" d="M79 217L80 218L79 217M92 217L93 218L92 217z"/>
<path style="fill:#e0e0e0; stroke:none;" d="M134 217L135 218L134 217z"/>
<path style="fill:#f2f2f2; stroke:none;" d="M184 217L185 218L184 217z"/>
<path style="fill:#e8e8e8; stroke:none;" d="M273 217L274 218L273 217z"/>
<path style="fill:#f2f2f2; stroke:none;" d="M326 217L327 218L326 217z"/>
<path style="fill:#e8e8e8; stroke:none;" d="M327 217L328 218L327 217z"/>
<path style="fill:#f2f2f2; stroke:none;" d="M330 217L331 218L330 217M398 217L399 218L398 217z"/>
<path style="fill:#e8e8e8; stroke:none;" d="M415 217L416 218L415 217M428 217L429 218L428 217z"/>
<path style="fill:#e0e0e0; stroke:none;" d="M479 217L480 218L479 217z"/>
<path style="fill:#f2f2f2; stroke:none;" d="M494.333 217.667L494.667 218.333L494.333 217.667M32 218L33 219L32 218M64 218L65 219L64 218M77.3333 218.667L77.6667 219.333L77.3333 218.667z"/>
<path style="fill:#e8e8e8; stroke:none;" d="M92 218L93 219L92 218z"/>
<path style="fill:#f2f2f2; stroke:none;" d="M134 218L135 219L134 218M149 218L149 223L150 223L149 218z"/>
<path style="fill:#e8e8e8; stroke:none;" d="M288 218L288 222L289 222L288 218z"/>
<path style="fill:#e0e0e0; stroke:none;" d="M311 218L312 219L311 218z"/>
<path style="fill:#f2f2f2; stroke:none;" d="M329 218L330 219L329 218z"/>
<path style="fill:#e8e8e8; stroke:none;" d="M398 218L399 219L398 218M414 218L415 219L414 218z"/>
<path style="fill:#e0e0e0; stroke:none;" d="M429 218L430 219L429 218z"/>
<path style="fill:#e8e8e8; stroke:none;" d="M445 218L446 219L445 218z"/>
<path style="fill:#f2f2f2; stroke:none;" d="M479 218L480 219L479 218z"/>
<path style="fill:#e0e0e0; stroke:none;" d="M64 219L65 220L64 219M80 219L81 220L80 219M92 219L93 220L92 219M185.333 219.667L185.667 220.333L185.333 219.667M274 219L275 220L274 219M413 219L414 220L413 219M430 219L431 220L430 219M445 219L446 220L445 219M480.333 219.667L480.667 220.333L480.333 219.667z"/>
<path style="fill:#e8e8e8; stroke:none;" d="M494 219L494 224L495 224L494 219M80 220L81 221L80 220z"/>
<path style="fill:#f2f2f2; stroke:none;" d="M93 220L94 221L93 220z"/>
<path style="fill:#e0e0e0; stroke:none;" d="M135 220L136 221L135 220z"/>
<path style="fill:#f2f2f2; stroke:none;" d="M199 220L200 221L199 220z"/>
<path style="fill:#e8e8e8; stroke:none;" d="M274.333 220.667L274.667 221.333L274.333 220.667M312 220L313 221L312 220z"/>
<path style="fill:#f2f2f2; stroke:none;" d="M397 220L398 221L397 220M413 220L414 221L413 220M430 220L431 221L430 220M32 221L33 222L32 221M63 221L64 222L63 221z"/>
<path style="fill:#e0e0e0; stroke:none;" d="M76 221L77 222L76 221z"/>
<path style="fill:#f2f2f2; stroke:none;" d="M80 221L81 222L80 221z"/>
<path style="fill:#e8e8e8; stroke:none;" d="M93 221L94 222L93 221M313 221L314 222L313 221M397 221L398 222L397 221z"/>
<path style="fill:#e0e0e0; stroke:none;" d="M412 221L413 222L412 221M431 221L432 222L431 221z"/>
<path style="fill:#f2f2f2; stroke:none;" d="M446 221L447 222L446 221z"/>
<path style="fill:#e8e8e8; stroke:none;" d="M480 221L481 222L480 221z"/>
<path style="fill:#e0e0e0; stroke:none;" d="M32 222L33 223L32 222z"/>
<path style="fill:#e8e8e8; stroke:none;" d="M46 222L47 223L46 222z"/>
<path style="fill:#e0e0e0; stroke:none;" d="M63 222L64 223L63 222z"/>
<path style="fill:#f2f2f2; stroke:none;" d="M76.3333 222.667L76.6667 223.333L76.3333 222.667z"/>
<path style="fill:#e0e0e0; stroke:none;" d="M93 222L94 223L93 222z"/>
<path style="fill:#e8e8e8; stroke:none;" d="M184 222L185 223L184 222z"/>
<path style="fill:#e0e0e0; stroke:none;" d="M198 222L199 223L198 222M274 222L275 223L274 222z"/>
<path style="fill:#f2f2f2; stroke:none;" d="M288.333 222.667L288.667 223.333L288.333 222.667z"/>
<path style="fill:#e0e0e0; stroke:none;" d="M298 222L299 223L298 222M314 222L315 223L314 222z"/>
<path style="fill:#f2f2f2; stroke:none;" d="M315 222L316 223L315 222z"/>
<path style="fill:#e0e0e0; stroke:none;" d="M397 222L398 223L397 222z"/>
<path style="fill:#e8e8e8; stroke:none;" d="M412 222L413 223L412 222M431 222L432 223L431 222M446 222L447 223L446 222z"/>
<path style="fill:#e0e0e0; stroke:none;" d="M480 222L481 223L480 222M31 223L32 224L31 223M81 223L82 224L81 223z"/>
<path style="fill:#f2f2f2; stroke:none;" d="M94 223L95 224L94 223M134 223L135 224L134 223z"/>
<path style="fill:#e8e8e8; stroke:none;" d="M183 223L184 224L183 223z"/>
<path style="fill:#f2f2f2; stroke:none;" d="M198 223L199 224L198 223z"/>
<path style="fill:#e8e8e8; stroke:none;" d="M298 223L299 224L298 223z"/>
<path style="fill:#e0e0e0; stroke:none;" d="M316 223L317 224L316 223z"/>
<path style="fill:#f2f2f2; stroke:none;" d="M317 223L318 224L317 223M412 223L413 224L412 223M431 223L432 224L431 223z"/>
<path style="fill:#e0e0e0; stroke:none;" d="M446 223L447 224L446 223z"/>
<path style="fill:#e8e8e8; stroke:none;" d="M29 224L30 225L29 224M45 224L46 225L45 224z"/>
<path style="fill:#f2f2f2; stroke:none;" d="M62 224L63 225L62 224z"/>
<path style="fill:#e8e8e8; stroke:none;" d="M81 224L82 225L81 224M94 224L95 225L94 224z"/>
<path style="fill:#e0e0e0; stroke:none;" d="M134 224L135 225L134 224M148 224L149 225L148 224z"/>
<path style="fill:#f2f2f2; stroke:none;" d="M175 224L175 225L181 225L175 224z"/>
<path style="fill:#e8e8e8; stroke:none;" d="M181 224L182 225L181 224z"/>
<path style="fill:#e0e0e0; stroke:none;" d="M182 224L183 225L182 224M197 224L198 225L197 224M224 224L224 225L239 225L239 235C244.053 222.957 232.154 224 224 224z"/>
<path style="fill:#e8e8e8; stroke:none;" d="M239 224L240 225L239 224M273 224L274 225L273 224z"/>
<path style="fill:#f2f2f2; stroke:none;" d="M298 224L299 225L298 224z"/>
<path style="fill:#e0e0e0; stroke:none;" d="M318 224L319 225L318 224z"/>
<path style="fill:#f2f2f2; stroke:none;" d="M319 224L320 225L319 224M479 224L480 225L479 224M494.333 224.667L494.667 225.333L494.333 224.667z"/>
<path style="fill:#e0e0e0; stroke:none;" d="M44 225L45 226L44 225M62 225L63 226L62 225M75 225L76 226L75 225z"/>
<path style="fill:#f2f2f2; stroke:none;" d="M81 225L82 226L81 225z"/>
<path style="fill:#e0e0e0; stroke:none;" d="M94 225L95 226L94 225z"/>
<path style="fill:#e8e8e8; stroke:none;" d="M133 225L134 226L133 225z"/>
<path style="fill:#f2f2f2; stroke:none;" d="M148 225L149 226L148 225M197 225L198 226L197 225M272 225L273 226L272 225z"/>
<path style="fill:#e8e8e8; stroke:none;" d="M287 225L288 226L287 225z"/>
<path style="fill:#e0e0e0; stroke:none;" d="M320 225L321 226L320 225z"/>
<path style="fill:#f2f2f2; stroke:none;" d="M321 225L322 226L321 225M396 225L396 230L397 230L396 225z"/>
<path style="fill:#e0e0e0; stroke:none;" d="M411 225L412 226L411 225M432.333 225.667L432.667 226.333L432.333 225.667M479 225L480 226L479 225M43 226L44 227L43 226z"/>
<path style="fill:#f2f2f2; stroke:none;" d="M75.3333 226.667L75.6667 227.333L75.3333 226.667M95 226L96 227L95 226M131 226L132 227L131 226z"/>
<path style="fill:#e0e0e0; stroke:none;" d="M132 226L133 227L132 226z"/>
<path style="fill:#f2f2f2; stroke:none;" d="M196 226L197 227L196 226M270 226L271 227L270 226z"/>
<path style="fill:#e8e8e8; stroke:none;" d="M271 226L272 227L271 226z"/>
<path style="fill:#f2f2f2; stroke:none;" d="M287 226L288 227L287 226z"/>
<path style="fill:#e8e8e8; stroke:none;" d="M299 226L300 227L299 226M323 226L324 227L323 226M411.333 226.667L411.667 227.333L411.333 226.667z"/>
<path style="fill:#e0e0e0; stroke:none;" d="M478 226L479 227L478 226M42 227L43 228L42 227z"/>
<path style="fill:#f2f2f2; stroke:none;" d="M61 227L62 228L61 227z"/>
<path style="fill:#e0e0e0; stroke:none;" d="M82 227L83 228L82 227z"/>
<path style="fill:#e8e8e8; stroke:none;" d="M95 227L96 228L95 227M125 227L125 228L128 228L125 227z"/>
<path style="fill:#e0e0e0; stroke:none;" d="M128.667 227.333L129.333 227.667L128.667 227.333z"/>
<path style="fill:#e8e8e8; stroke:none;" d="M147 227L148 228L147 227z"/>
<path style="fill:#e0e0e0; stroke:none;" d="M194 227L195 228L194 227z"/>
<path style="fill:#f2f2f2; stroke:none;" d="M195 227L196 228L195 227z"/>
<path style="fill:#e0e0e0; stroke:none;" d="M264 227L265 228L264 227z"/>
<path style="fill:#e8e8e8; stroke:none;" d="M265.667 227.333L266.333 227.667L265.667 227.333z"/>
<path style="fill:#e0e0e0; stroke:none;" d="M267.667 227.333L268.333 227.667L267.667 227.333M286 227L287 228L286 227z"/>
<path style="fill:#f2f2f2; stroke:none;" d="M325 227L326 228L325 227z"/>
<path style="fill:#e8e8e8; stroke:none;" d="M432 227L432 230L433 230L432 227z"/>
<path style="fill:#f2f2f2; stroke:none;" d="M447 227L447 235L448 235L447 227M476 227L477 228L476 227z"/>
<path style="fill:#e0e0e0; stroke:none;" d="M477 227L478 228L477 227M493 227L494 228L493 227M40 228L41 229L40 228z"/>
<path style="fill:#f2f2f2; stroke:none;" d="M41 228L42 229L41 228z"/>
<path style="fill:#e0e0e0; stroke:none;" d="M61 228L62 229L61 228z"/>
<path style="fill:#e8e8e8; stroke:none;" d="M82 228L83 229L82 228z"/>
<path style="fill:#e0e0e0; stroke:none;" d="M95 228L96 229L95 228M146 228L147 229L146 228M192 228L193 229L192 228z"/>
<path style="fill:#f2f2f2; stroke:none;" d="M193 228L194 229L193 228M286 228L287 229L286 228M300 228L301 229L300 228z"/>
<path style="fill:#e0e0e0; stroke:none;" d="M326 228L327 229L326 228z"/>
<path style="fill:#f2f2f2; stroke:none;" d="M327 228L328 229L327 228M411 228L411 234L412 234L411 228z"/>
<path style="fill:#e8e8e8; stroke:none;" d="M493 228L494 229L493 228M39 229L40 230L39 229z"/>
<path style="fill:#e0e0e0; stroke:none;" d="M74 229L75 230L74 229z"/>
<path style="fill:#f2f2f2; stroke:none;" d="M82 229L83 230L82 229M146 229L147 230L146 229z"/>
<path style="fill:#e0e0e0; stroke:none;" d="M191 229L192 230L191 229z"/>
<path style="fill:#f2f2f2; stroke:none;" d="M285 229L286 230L285 229z"/>
<path style="fill:#e8e8e8; stroke:none;" d="M301 229L302 230L301 229M328 229L329 230L328 229M41 230L42 231L41 230z"/>
<path style="fill:#f2f2f2; stroke:none;" d="M60 230L61 231L60 230M74 230L75 231L74 230z"/>
<path style="fill:#e8e8e8; stroke:none;" d="M96 230L97 231L96 230z"/>
<path style="fill:#f2f2f2; stroke:none;" d="M145 230L146 231L145 230z"/>
<path style="fill:#e0e0e0; stroke:none;" d="M193 230L194 231L193 230z"/>
<path style="fill:#f2f2f2; stroke:none;" d="M194 230L195 231L194 230z"/>
<path style="fill:#e8e8e8; stroke:none;" d="M284 230L285 231L284 230M302 230L303 231L302 230z"/>
<path style="fill:#e0e0e0; stroke:none;" d="M329 230L330 231L329 230z"/>
<path style="fill:#e8e8e8; stroke:none;" d="M396 230L397 231L396 230z"/>
<path style="fill:#f2f2f2; stroke:none;" d="M432 230L433 231L432 230z"/>
<path style="fill:#e8e8e8; stroke:none;" d="M492 230L493 231L492 230M43 231L44 232L43 231z"/>
<path style="fill:#e0e0e0; stroke:none;" d="M60 231L61 232L60 231M83 231L84 232L83 231M96 231L97 232L96 231z"/>
<path style="fill:#f2f2f2; stroke:none;" d="M144 231L145 232L144 231z"/>
<path style="fill:#e0e0e0; stroke:none;" d="M195 231L196 232L195 231z"/>
<path style="fill:#e8e8e8; stroke:none;" d="M283 231L284 232L283 231z"/>
<path style="fill:#f2f2f2; stroke:none;" d="M303 231L304 232L303 231z"/>
<path style="fill:#e0e0e0; stroke:none;" d="M330 231L331 232L330 231z"/>
<path style="fill:#f2f2f2; stroke:none;" d="M396 231L396 236L397 236L396 231z"/>
<path style="fill:#e8e8e8; stroke:none;" d="M432 231L432 235L433 235L432 231z"/>
<path style="fill:#e0e0e0; stroke:none;" d="M44 232L45 233L44 232z"/>
<path style="fill:#e8e8e8; stroke:none;" d="M83 232L84 233L83 232z"/>
<path style="fill:#e0e0e0; stroke:none;" d="M142 232L143 233L142 232z"/>
<path style="fill:#f2f2f2; stroke:none;" d="M197 232L198 233L197 232M282 232L283 233L282 232z"/>
<path style="fill:#e0e0e0; stroke:none;" d="M305 232L306 233L305 232z"/>
<path style="fill:#e8e8e8; stroke:none;" d="M331 232L332 233L331 232M491 232L492 233L491 232z"/>
<path style="fill:#e0e0e0; stroke:none;" d="M45 233L46 234L45 233z"/>
<path style="fill:#f2f2f2; stroke:none;" d="M59 233L60 234L59 233z"/>
<path style="fill:#e8e8e8; stroke:none;" d="M73 233L74 234L73 233z"/>
<path style="fill:#f2f2f2; stroke:none;" d="M83 233L84 234L83 233M97 233L98 234L97 233z"/>
<path style="fill:#e8e8e8; stroke:none;" d="M141 233L142 234L141 233z"/>
<path style="fill:#f2f2f2; stroke:none;" d="M198 233L199 234L198 233z"/>
<path style="fill:#e0e0e0; stroke:none;" d="M280 233L281 234L280 233z"/>
<path style="fill:#f2f2f2; stroke:none;" d="M306 233L307 234L306 233z"/>
<path style="fill:#e0e0e0; stroke:none;" d="M307 233L308 234L307 233z"/>
<path style="fill:#f2f2f2; stroke:none;" d="M332 233L333 234L332 233z"/>
<path style="fill:#e0e0e0; stroke:none;" d="M490 233L491 234L490 233z"/>
<path style="fill:#e8e8e8; stroke:none;" d="M46 234L47 235L46 234M59 234L60 235L59 234z"/>
<path style="fill:#f2f2f2; stroke:none;" d="M73 234L73 235L84 236L84 235L73 234z"/>
<path style="fill:#e0e0e0; stroke:none;" d="M97 234L98 235L97 234M140 234L141 235L140 234M198 234L199 235L198 234z"/>
<path style="fill:#f2f2f2; stroke:none;" d="M308 234L309 235L308 234z"/>
<path style="fill:#e0e0e0; stroke:none;" d="M309 234L310 235L309 234M332 234L333 235L332 234z"/>
<path style="fill:#e8e8e8; stroke:none;" d="M411 234L412 235L411 234z"/>
<path style="fill:#e0e0e0; stroke:none;" d="M489 234L490 235L489 234z"/>
<path style="fill:#f2f2f2; stroke:none;" d="M22 235L22 246L23 246L22 235z"/>
<path style="fill:#ffffff; stroke:none;" d="M23 235L23 246C35.6247 245.886 35.5841 235.27 23 235z"/>
<path style="fill:#f2f2f2; stroke:none;" d="M29 235L30 236L29 235z"/>
<path style="fill:#e8e8e8; stroke:none;" d="M30 235L31 236L30 235z"/>
<path style="fill:#f2f2f2; stroke:none;" d="M47 235L48 236L47 235z"/>
<path style="fill:#e8e8e8; stroke:none;" d="M73 235L74 236L73 235z"/>
<path style="fill:#e0e0e0; stroke:none;" d="M84 235L85 236L84 235z"/>
<path style="fill:#f2f2f2; stroke:none;" d="M141 235L142 236L141 235z"/>
<path style="fill:#e8e8e8; stroke:none;" d="M174 235L174 246L175 246L174 235z"/>
<path style="fill:#ffffff; stroke:none;" d="M175 235L175 246C187.817 245.884 187.777 235.274 175 235z"/>
<path style="fill:#f2f2f2; stroke:none;" d="M181 235L182 236L181 235z"/>
<path style="fill:#e8e8e8; stroke:none;" d="M182 235L183 236L182 235z"/>
<path style="fill:#e0e0e0; stroke:none;" d="M183 235L184 236L183 235z"/>
<path style="fill:#f2f2f2; stroke:none;" d="M199 235L200 236L199 235z"/>
<path style="fill:#e8e8e8; stroke:none;" d="M224 235L224 236L239 236L224 235z"/>
<path style="fill:#f2f2f2; stroke:none;" d="M239 235L240 236L239 235z"/>
<path style="fill:#e8e8e8; stroke:none;" d="M280 235L281 236L280 235z"/>
<path style="fill:#f2f2f2; stroke:none;" d="M310 235L311 236L310 235z"/>
<path style="fill:#e0e0e0; stroke:none;" d="M311 235L312 236L311 235M356 235L357 236L356 235z"/>
<path style="fill:#e8e8e8; stroke:none;" d="M357 235L357 236L372 236L357 235z"/>
<path style="fill:#e0e0e0; stroke:none;" d="M372 235L373 236L372 235M411.333 235.667L411.667 236.333L411.333 235.667M432 235L433 236L432 235z"/>
<path style="fill:#e8e8e8; stroke:none;" d="M488 235L489 236L488 235z"/>
<path style="fill:#e0e0e0; stroke:none;" d="M32 236L33 237L32 236z"/>
<path style="fill:#e8e8e8; stroke:none;" d="M47 236L48 237L47 236z"/>
<path style="fill:#f2f2f2; stroke:none;" d="M58 236L59 237L58 236M98 236L99 237L98 236z"/>
<path style="fill:#e8e8e8; stroke:none;" d="M184 236L185 237L184 236z"/>
<path style="fill:#e0e0e0; stroke:none;" d="M199 236L200 237L199 236z"/>
<path style="fill:#f2f2f2; stroke:none;" d="M281 236L282 237L281 236M312 236L313 237L312 236z"/>
<path style="fill:#e0e0e0; stroke:none;" d="M313 236L314 237L313 236z"/>
<path style="fill:#e8e8e8; stroke:none;" d="M333 236L334 237L333 236z"/>
<path style="fill:#f2f2f2; stroke:none;" d="M356 236L356 257L357 257L356 236M487 236L488 237L487 236z"/>
<path style="fill:#e0e0e0; stroke:none;" d="M33 237L34 238L33 237z"/>
<path style="fill:#e8e8e8; stroke:none;" d="M58 237L59 238L58 237z"/>
<path style="fill:#e0e0e0; stroke:none;" d="M98 237L99 238L98 237M142 237L143 238L142 237z"/>
<path style="fill:#e8e8e8; stroke:none;" d="M185 237L186 238L185 237z"/>
<path style="fill:#e0e0e0; stroke:none;" d="M281 237L282 238L281 237z"/>
<path style="fill:#f2f2f2; stroke:none;" d="M314 237L315 238L314 237z"/>
<path style="fill:#e0e0e0; stroke:none;" d="M315 237L316 238L315 237M333 237L334 238L333 237M446 237L447 238L446 237z"/>
<path style="fill:#e8e8e8; stroke:none;" d="M485 237L486 238L485 237z"/>
<path style="fill:#f2f2f2; stroke:none;" d="M33 238L34 239L33 238M143 238L144 239L143 238M200 238L201 239L200 238M264 238L264 257L265 257L264 238z"/>
<path style="fill:#e0e0e0; stroke:none;" d="M268 238L269 239L268 238z"/>
<path style="fill:#e8e8e8; stroke:none;" d="M282 238L283 239L282 238z"/>
<path style="fill:#f2f2f2; stroke:none;" d="M316 238L317 239L316 238z"/>
<path style="fill:#e0e0e0; stroke:none;" d="M317 238L318 239L317 238M397 238L398 239L397 238z"/>
<path style="fill:#f2f2f2; stroke:none;" d="M412 238L413 239L412 238M431 238L432 239L431 238z"/>
<path style="fill:#e8e8e8; stroke:none;" d="M446.333 238.667L446.667 239.333L446.333 238.667z"/>
<path style="fill:#e0e0e0; stroke:none;" d="M481 238L482 239L481 238z"/>
<path style="fill:#e8e8e8; stroke:none;" d="M482 238L483 239L482 238z"/>
<path style="fill:#f2f2f2; stroke:none;" d="M483 238L484 239L483 238M48 239L48 245L49 245L48 239M57 239L58 240L57 239M99 239L100 240L99 239M129 239L130 240L129 239z"/>
<path style="fill:#e8e8e8; stroke:none;" d="M200 239L200 244L201 244L200 239z"/>
<path style="fill:#f2f2f2; stroke:none;" d="M268 239L269 240L268 239M283 239L284 240L283 239z"/>
<path style="fill:#e8e8e8; stroke:none;" d="M318 239L319 240L318 239M397 239L398 240L397 239M412 239L413 240L412 239z"/>
<path style="fill:#e0e0e0; stroke:none;" d="M431 239L432 240L431 239z"/>
<path style="fill:#e8e8e8; stroke:none;" d="M471 239L471 240L478 240L471 239z"/>
<path style="fill:#f2f2f2; stroke:none;" d="M478.667 239.333L479.333 239.667L478.667 239.333z"/>
<path style="fill:#e8e8e8; stroke:none;" d="M57 240L58 241L57 240z"/>
<path style="fill:#e0e0e0; stroke:none;" d="M99 240L100 241L99 240M130 240L131 241L130 240M144 240L145 241L144 240M186 240L187 241L186 240z"/>
<path style="fill:#e8e8e8; stroke:none;" d="M269 240L270 241L269 240z"/>
<path style="fill:#e0e0e0; stroke:none;" d="M283 240L284 241L283 240z"/>
<path style="fill:#e8e8e8; stroke:none;" d="M319 240L320 241L319 240z"/>
<path style="fill:#f2f2f2; stroke:none;" d="M397 240L398 241L397 240M446 240L447 241L446 240z"/>
<path style="fill:#e0e0e0; stroke:none;" d="M470 240L470 257L471 257L470 240z"/>
<path style="fill:#f2f2f2; stroke:none;" d="M130 241L131 242L130 241M145 241L146 242L145 241z"/>
<path style="fill:#e8e8e8; stroke:none;" d="M284 241L285 242L284 241M413 241L414 242L413 241M430 241L431 242L430 241z"/>
<path style="fill:#f2f2f2; stroke:none;" d="M33 242L34 243L33 242M56 242L57 243L56 242M100 242L101 243L100 242z"/>
<path style="fill:#e0e0e0; stroke:none;" d="M131 242L132 243L131 242z"/>
<path style="fill:#f2f2f2; stroke:none;" d="M270 242L271 243L270 242M285 242L286 243L285 242z"/>
<path style="fill:#e8e8e8; stroke:none;" d="M297 242L297 254L298 254L297 242z"/>
<path style="fill:#e0e0e0; stroke:none;" d="M298 242L299 243L298 242z"/>
<path style="fill:#f2f2f2; stroke:none;" d="M299 242L300 243L299 242z"/>
<path style="fill:#e0e0e0; stroke:none;" d="M398 242L399 243L398 242z"/>
<path style="fill:#f2f2f2; stroke:none;" d="M414 242L415 243L414 242M429 242L430 243L429 242z"/>
<path style="fill:#e0e0e0; stroke:none;" d="M445 242L446 243L445 242M33 243L34 244L33 243z"/>
<path style="fill:#e8e8e8; stroke:none;" d="M56 243L57 244L56 243z"/>
<path style="fill:#e0e0e0; stroke:none;" d="M100 243L101 244L100 243M146 243L147 244L146 243z"/>
<path style="fill:#e8e8e8; stroke:none;" d="M185 243L186 244L185 243z"/>
<path style="fill:#e0e0e0; stroke:none;" d="M271 243L272 244L271 243M285 243L286 244L285 243M300 243L301 244L300 243z"/>
<path style="fill:#f2f2f2; stroke:none;" d="M301 243L302 244L301 243M319 243L320 244L319 243M398 243L399 244L398 243M415 243L416 244L415 243M428 243L429 244L428 243M445 243L446 244L445 243z"/>
<path style="fill:#e8e8e8; stroke:none;" d="M32 244L33 245L32 244M132 244L133 245L132 244z"/>
<path style="fill:#f2f2f2; stroke:none;" d="M147 244L148 245L147 244M184 244L185 245L184 244M200.333 244.667L200.667 245.333L200.333 244.667M271 244L272 245L271 244z"/>
<path style="fill:#e8e8e8; stroke:none;" d="M286 244L287 245L286 244M303 244L304 245L303 244z"/>
<path style="fill:#f2f2f2; stroke:none;" d="M304 244L305 245L304 244z"/>
<path style="fill:#e0e0e0; stroke:none;" d="M319 244L320 245L319 244M333 244L334 245L333 244z"/>
<path style="fill:#e8e8e8; stroke:none;" d="M416 244L417 245L416 244M427 244L428 245L427 244z"/>
<path style="fill:#f2f2f2; stroke:none;" d="M30 245L31 246L30 245z"/>
<path style="fill:#e0e0e0; stroke:none;" d="M31 245L32 246L31 245z"/>
<path style="fill:#f2f2f2; stroke:none;" d="M55 245L56 246L55 245M101 245L102 246L101 245z"/>
<path style="fill:#e0e0e0; stroke:none;" d="M133 245L134 246L133 245z"/>
<path style="fill:#f2f2f2; stroke:none;" d="M182 245L183 246L182 245z"/>
<path style="fill:#e8e8e8; stroke:none;" d="M183 245L184 246L183 245M224 245L224 246L241 246L224 245z"/>
<path style="fill:#e0e0e0; stroke:none;" d="M272 245L273 246L272 245z"/>
<path style="fill:#f2f2f2; stroke:none;" d="M287 245L288 246L287 245z"/>
<path style="fill:#e0e0e0; stroke:none;" d="M306 245L307 246L306 245z"/>
<path style="fill:#e8e8e8; stroke:none;" d="M307 245L308 246L307 245z"/>
<path style="fill:#f2f2f2; stroke:none;" d="M308 245L309 246L308 245M317 245L318 246L317 245z"/>
<path style="fill:#e0e0e0; stroke:none;" d="M318 245L319 246L318 245z"/>
<path style="fill:#e8e8e8; stroke:none;" d="M333 245L334 246L333 245M399 245L400 246L399 245M418 245L419 246L418 245z"/>
<path style="fill:#f2f2f2; stroke:none;" d="M419 245L420 246L419 245M423.667 245.333L424.333 245.667L423.667 245.333z"/>
<path style="fill:#e8e8e8; stroke:none;" d="M425 245L426 246L425 245z"/>
<path style="fill:#f2f2f2; stroke:none;" d="M444 245L445 246L444 245z"/>
<path style="fill:#e0e0e0; stroke:none;" d="M47 246L48 247L47 246z"/>
<path style="fill:#e8e8e8; stroke:none;" d="M55 246L56 247L55 246z"/>
<path style="fill:#e0e0e0; stroke:none;" d="M101 246L102 247L101 246z"/>
<path style="fill:#f2f2f2; stroke:none;" d="M133 246L134 247L133 246z"/>
<path style="fill:#e0e0e0; stroke:none;" d="M148 246L149 247L148 246M287 246L288 247L287 246M311 246L311 247L316 247L311 246z"/>
<path style="fill:#f2f2f2; stroke:none;" d="M333 246L334 247L333 246M47 247L48 248L47 247z"/>
<path style="fill:#e0e0e0; stroke:none;" d="M55 247L56 248L55 247z"/>
<path style="fill:#f2f2f2; stroke:none;" d="M70 247L71 248L70 247z"/>
<path style="fill:#e0e0e0; stroke:none;" d="M87 247L88 248L87 247M134 247L135 248L134 247z"/>
<path style="fill:#f2f2f2; stroke:none;" d="M149 247L150 248L149 247z"/>
<path style="fill:#e8e8e8; stroke:none;" d="M199 247L200 248L199 247M273 247L274 248L273 247M288 247L289 248L288 247z"/>
<path style="fill:#e0e0e0; stroke:none;" d="M332 247L333 248L332 247z"/>
<path style="fill:#f2f2f2; stroke:none;" d="M400 247L401 248L400 247M443 247L444 248L443 247z"/>
<path style="fill:#e0e0e0; stroke:none;" d="M46 248L47 249L46 248z"/>
<path style="fill:#f2f2f2; stroke:none;" d="M54 248L55 249L54 248z"/>
<path style="fill:#e0e0e0; stroke:none;" d="M69 248L70 249L69 248z"/>
<path style="fill:#f2f2f2; stroke:none;" d="M87 248L88 249L87 248M102 248L103 249L102 248M134 248L135 249L134 248z"/>
<path style="fill:#e0e0e0; stroke:none;" d="M274 248L275 249L274 248z"/>
<path style="fill:#f2f2f2; stroke:none;" d="M289 248L290 249L289 248M332 248L333 249L332 248z"/>
<path style="fill:#e0e0e0; stroke:none;" d="M401 248L402 249L401 248M442 248L443 249L442 248z"/>
<path style="fill:#f2f2f2; stroke:none;" d="M46 249L47 250L46 249z"/>
<path style="fill:#e8e8e8; stroke:none;" d="M54 249L55 250L54 249M69 249L70 250L69 249z"/>
<path style="fill:#e0e0e0; stroke:none;" d="M102 249L103 250L102 249z"/>
<path style="fill:#e8e8e8; stroke:none;" d="M135 249L136 250L135 249z"/>
<path style="fill:#e0e0e0; stroke:none;" d="M150 249L151 250L150 249z"/>
<path style="fill:#e8e8e8; stroke:none;" d="M198 249L199 250L198 249z"/>
<path style="fill:#f2f2f2; stroke:none;" d="M274 249L275 250L274 249z"/>
<path style="fill:#e0e0e0; stroke:none;" d="M289 249L290 250L289 249M331 249L332 250L331 249M441 249L442 250L441 249z"/>
<path style="fill:#e8e8e8; stroke:none;" d="M45 250L46 251L45 250z"/>
<path style="fill:#e0e0e0; stroke:none;" d="M54 250L55 251L54 250z"/>
<path style="fill:#f2f2f2; stroke:none;" d="M69 250L70 251L69 250z"/>
<path style="fill:#e0e0e0; stroke:none;" d="M88 250L89 251L88 250z"/>
<path style="fill:#f2f2f2; stroke:none;" d="M151 250L152 251L151 250z"/>
<path style="fill:#e0e0e0; stroke:none;" d="M197 250L198 251L197 250M275 250L276 251L275 250z"/>
<path style="fill:#e8e8e8; stroke:none;" d="M290 250L291 251L290 250z"/>
<path style="fill:#f2f2f2; stroke:none;" d="M402 250L403 251L402 250M441 250L442 251L441 250z"/>
<path style="fill:#e8e8e8; stroke:none;" d="M44 251L45 252L44 251z"/>
<path style="fill:#f2f2f2; stroke:none;" d="M53 251L54 252L53 251z"/>
<path style="fill:#e8e8e8; stroke:none;" d="M88 251L89 252L88 251z"/>
<path style="fill:#f2f2f2; stroke:none;" d="M103 251L104 252L103 251M136 251L137 252L136 251z"/>
<path style="fill:#e0e0e0; stroke:none;" d="M196 251L197 252L196 251z"/>
<path style="fill:#f2f2f2; stroke:none;" d="M275 251L276 252L275 251M291 251L292 252L291 251M330 251L331 252L330 251M403 251L404 252L403 251M440 251L441 252L440 251z"/>
<path style="fill:#e8e8e8; stroke:none;" d="M43 252L44 253L43 252M53 252L54 253L53 252z"/>
<path style="fill:#e0e0e0; stroke:none;" d="M68 252L69 253L68 252z"/>
<path style="fill:#f2f2f2; stroke:none;" d="M88 252L89 253L88 252z"/>
<path style="fill:#e0e0e0; stroke:none;" d="M103 252L104 253L103 252M137 252L138 253L137 252M152 252L153 253L152 252M195 252L196 253L195 252z"/>
<path style="fill:#e8e8e8; stroke:none;" d="M276 252L277 253L276 252z"/>
<path style="fill:#e0e0e0; stroke:none;" d="M291 252L292 253L291 252z"/>
<path style="fill:#f2f2f2; stroke:none;" d="M329 252L330 253L329 252M404 252L405 253L404 252z"/>
<path style="fill:#e0e0e0; stroke:none;" d="M405 252L406 253L405 252M438 252L439 253L438 252z"/>
<path style="fill:#f2f2f2; stroke:none;" d="M439 252L440 253L439 252z"/>
<path style="fill:#e0e0e0; stroke:none;" d="M41 253L42 254L41 253z"/>
<path style="fill:#f2f2f2; stroke:none;" d="M42 253L43 254L42 253z"/>
<path style="fill:#e0e0e0; stroke:none;" d="M53 253L54 254L53 253z"/>
<path style="fill:#f2f2f2; stroke:none;" d="M68.3333 253.667L68.6667 254.333L68.3333 253.667M137 253L138 254L137 253M153 253L154 254L153 253M194 253L195 254L194 253z"/>
<path style="fill:#e8e8e8; stroke:none;" d="M292 253L293 254L292 253z"/>
<path style="fill:#e0e0e0; stroke:none;" d="M327 253L328 254L327 253z"/>
<path style="fill:#f2f2f2; stroke:none;" d="M328 253L329 254L328 253z"/>
<path style="fill:#e8e8e8; stroke:none;" d="M406 253L407 254L406 253M437 253L438 254L437 253M40 254L41 255L40 254z"/>
<path style="fill:#e0e0e0; stroke:none;" d="M89 254L90 255L89 254z"/>
<path style="fill:#f2f2f2; stroke:none;" d="M104 254L105 255L104 254z"/>
<path style="fill:#e0e0e0; stroke:none;" d="M138 254L139 255L138 254z"/>
<path style="fill:#e8e8e8; stroke:none;" d="M192 254L193 255L192 254z"/>
<path style="fill:#f2f2f2; stroke:none;" d="M277 254L278 255L277 254M293 254L294 255L293 254M297 254L298 255L297 254z"/>
<path style="fill:#e0e0e0; stroke:none;" d="M298 254L299 255L298 254z"/>
<path style="fill:#e8e8e8; stroke:none;" d="M326 254L327 255L326 254z"/>
<path style="fill:#f2f2f2; stroke:none;" d="M407 254L408 255L407 254z"/>
<path style="fill:#e0e0e0; stroke:none;" d="M408 254L409 255L408 254M435 254L436 255L435 254z"/>
<path style="fill:#f2f2f2; stroke:none;" d="M436 254L437 255L436 254z"/>
<path style="fill:#e0e0e0; stroke:none;" d="M37 255L38 256L37 255z"/>
<path style="fill:#f2f2f2; stroke:none;" d="M38 255L39 256L38 255z"/>
<path style="fill:#e8e8e8; stroke:none;" d="M52 255L53 256L52 255M89 255L90 256L89 255z"/>
<path style="fill:#e0e0e0; stroke:none;" d="M104 255L105 256L104 255M154 255L155 256L154 255M189 255L190 256L189 255z"/>
<path style="fill:#f2f2f2; stroke:none;" d="M190 255L191 256L190 255z"/>
<path style="fill:#e0e0e0; stroke:none;" d="M278 255L279 256L278 255M293 255L294 256L293 255z"/>
<path style="fill:#f2f2f2; stroke:none;" d="M299 255L300 256L299 255z"/>
<path style="fill:#e8e8e8; stroke:none;" d="M300 255L301 256L300 255M324 255L325 256L324 255z"/>
<path style="fill:#f2f2f2; stroke:none;" d="M409 255L410 256L409 255z"/>
<path style="fill:#e0e0e0; stroke:none;" d="M410 255L411 256L410 255M433 255L434 256L433 255z"/>
<path style="fill:#f2f2f2; stroke:none;" d="M434 255L435 256L434 255z"/>
<path style="fill:#e0e0e0; stroke:none;" d="M31.6667 256.333L32.3333 256.667L31.6667 256.333z"/>
<path style="fill:#e8e8e8; stroke:none;" d="M33 256L34 257L33 256z"/>
<path style="fill:#f2f2f2; stroke:none;" d="M34.6667 256.333L35.3333 256.667L34.6667 256.333z"/>
<path style="fill:#e0e0e0; stroke:none;" d="M52 256L53 257L52 256z"/>
<path style="fill:#e8e8e8; stroke:none;" d="M67 256L68 257L67 256z"/>
<path style="fill:#f2f2f2; stroke:none;" d="M89 256L90 257L89 256z"/>
<path style="fill:#e8e8e8; stroke:none;" d="M139 256L140 257L139 256z"/>
<path style="fill:#f2f2f2; stroke:none;" d="M155 256L156 257L155 256z"/>
<path style="fill:#e0e0e0; stroke:none;" d="M183.667 256.333L184.333 256.667L183.667 256.333z"/>
<path style="fill:#e8e8e8; stroke:none;" d="M185.667 256.333L186.333 256.667L185.667 256.333z"/>
<path style="fill:#f2f2f2; stroke:none;" d="M187 256L188 257L187 256M278 256L279 257L278 256z"/>
<path style="fill:#e8e8e8; stroke:none;" d="M294 256L295 257L294 256z"/>
<path style="fill:#f2f2f2; stroke:none;" d="M302 256L303 257L302 256z"/>
<path style="fill:#e8e8e8; stroke:none;" d="M303 256L304 257L303 256z"/>
<path style="fill:#e0e0e0; stroke:none;" d="M304 256L305 257L304 256z"/>
<path style="fill:#e8e8e8; stroke:none;" d="M321 256L322 257L321 256z"/>
<path style="fill:#f2f2f2; stroke:none;" d="M322 256L323 257L322 256M412 256L413 257L412 256z"/>
<path style="fill:#e0e0e0; stroke:none;" d="M413 256L414 257L413 256M430 256L431 257L430 256z"/>
<path style="fill:#f2f2f2; stroke:none;" d="M431 256L432 257L431 256M306 257L306 258L309 258L306 257z"/>
<path style="fill:#e8e8e8; stroke:none;" d="M309 257L309 258L317 258L309 257z"/>
<path style="fill:#f2f2f2; stroke:none;" d="M317.667 257.333L318.333 257.667L317.667 257.333M416.667 257.333L417.333 257.667L416.667 257.333z"/>
<path style="fill:#e8e8e8; stroke:none;" d="M418 257L418 258L426 258L418 257z"/>
<path style="fill:#f2f2f2; stroke:none;" d="M426.667 257.333L427.333 257.667L426.667 257.333z"/>
</svg>
